<?xml version="1.0" encoding="UTF-8"?><svg xmlns="http://www.w3.org/2000/svg" viewBox="0 0 225 50"><polygon points=".81 17.24 20.75 23.24 20.75 17.24 .81 11.23 .81 17.24" style="fill:red;"/><polygon points=".81 25 20.75 31 20.75 25 .81 19 .81 25" style="fill:#00742b;"/><polygon points="20.75 30.99 .81 32.76 .81 26.76 20.75 24.98 20.75 30.99" style="fill:#fff;"/><polygon points=".81 32.76 20.75 38.77 20.75 32.76 .81 26.76 .81 32.76"/><path d="M40.51,34.8c-.31,1.04-.56,2.22-.7,3.27-2.9-.11-5.21-.17-7.26-.17s-3.32.03-4.45.06c.2-1.41.39-3.18.39-5.35v-9.18c0-1.38-.08-2.36-.23-2.93-.14-.59-.53-.87-1.38-.87h-.28l.56-1.27c.82.03,1.86.03,2.73.03h5.21c1.58,0,2.48-.03,4.28-.08-.37.96-.7,1.91-.93,3.01l-.39.06c-.93-1.21-2.59-1.35-4.17-1.35-.48,0-1.18.03-1.94.08-.06.79-.11,2.11-.11,3.29v3.1h3.29c1.18,0,1.69-.06,3.04-.17-.06.34-.11.87-.11,1.35,0,.34.03.68.06.9-1.46-.11-2.25-.17-3.6-.17h-2.7v4.62c0,2.39.37,3.13,3.29,3.13,1.8,0,3.52-.14,4.95-1.52l.45.17Z" style="fill:#fff;"/><path d="M61.28,37.95c.28-1.46.37-3.32.37-5.35v-2.51c0-1.66-.14-3.72-2.56-3.72-.87,0-1.83.37-2.51,1.07-.84.87-1.04,1.52-1.04,3.29v1.89c0,2.56.17,4.11.56,5.32-.42-.06-1.21-.06-1.86-.06-.76,0-1.44.03-1.91.06.28-1.46.39-3.32.39-5.35v-2.25c0-1.75-.2-3.97-2.56-3.97-.9,0-1.77.34-2.51,1.01-.82.76-1.07,1.46-1.07,3.35v1.89c0,2.56.17,4.11.56,5.32-.45-.06-1.21-.06-1.86-.06-.76,0-1.44.03-1.91.06.28-1.46.37-3.32.37-5.35v-3.13c0-1.38-.06-2.36-.17-2.93-.14-.59-.56-.87-1.24-.87h-.23l.53-1.15c1.24,0,2.48-.08,3.89-.2l-.08,2.42,1.13-.96c1.18-.99,2.51-1.69,4.08-1.69,2.06,0,3.04.96,3.69,2.67l1.18-.99c1.44-1.15,2.56-1.69,3.89-1.69,3.35,0,4.11,2.17,4.11,5.12v3.41c0,2.56.17,4.11.56,5.32-.45-.06-1.24-.06-1.86-.06-.79,0-1.46.03-1.94.06Z" style="fill:#fff;"/><path d="M68.91,37.95c.31-1.66.37-3.38.37-5.35v-3.13c0-1.38-.06-2.36-.2-2.93-.14-.59-.53-.87-1.21-.87h-.23l.53-1.15,4.19-.2c-.17,2.45-.25,3.46-.25,4.7v3.97c0,2.34.2,3.8.56,4.95-.51-.03-1.18-.06-1.89-.06s-1.35.03-1.89.06ZM70.4,21.48c-.53,0-.84-.03-1.07-.23s-.31-.54-.31-1.18c0-.84.08-1.35.39-1.63.34-.28.82-.37,1.69-.37.62,0,.96.08,1.15.37.14.22.2.59.2,1.13,0,.84-.08,1.3-.31,1.55-.25.31-.79.37-1.75.37Z" style="fill:#fff;"/><path d="M84,27.7c-.42-.54-.84-.73-1.44-.73-.84,0-1.6.51-2.14,1.41-.48.76-.62,1.15-.62,2.87v2.03c0,2.51.17,3.46.56,4.67-.51-.03-1.18-.06-1.86-.06s-1.38.03-1.91.06c.28-1.66.39-2.84.39-4.81v-3.49c0-1.35-.11-2.53-.28-3.1-.14-.59-.56-.87-1.3-.87h-.23l.54-1.15c1.15,0,2.45-.08,3.77-.2l-.03,3.21.96-1.21c1.35-1.75,2.22-2.31,3.55-2.31.42,0,.65.06,1.1.25-.28,1.13-.51,2.22-.68,3.38l-.39.06Z" style="fill:#fff;"/><path d="M97.32,37.92c-1.18,0-2.39.08-3.63.2l-.08-2.03-1.1.93c-1.15.99-2.14,1.38-3.35,1.38-2.17,0-3.6-1.52-3.6-3.8,0-3.27,3.07-4,6.02-4.36,1.46-.2,1.6-.28,1.6-1.21,0-1.86-.59-2.98-2.76-2.98-1.18,0-2.34.39-3.01,1.35l-.37-.11c.08-.73.14-1.52.2-2.31,1.27-.56,2.65-.9,4.19-.9,1.75,0,3.55.34,4.28,2.03.23.56.28,1.58.28,2.34v4.7c0,1.15.11,2.2.28,2.76.17.59.54.84,1.27.84h.31l-.53,1.18ZM93.21,31.45c-1.69.11-4.67.34-4.67,2.7,0,1.3.82,2.17,2,2.17.59,0,1.18-.23,1.75-.7.73-.62.93-1.24.93-2.59v-1.58Z" style="fill:#fff;"/><path d="M103.76,20.38l.25.2c-.2,1.52-.23,1.91-.28,3.94h1.91c.76,0,1.6-.03,2.31-.14l.2.17c-.37.59-.59,1.15-.79,1.72-1.15-.08-1.6-.08-2.31-.08h-1.32c-.06,1.27-.08,2.39-.08,3.24v3.15c0,2,.17,3.86,2.22,3.86.59,0,1.07-.11,1.94-.53l.23.17c-.17.56-.31,1.21-.42,1.8-1.41.37-2.11.48-2.98.48-2.53,0-3.86-1.18-3.86-4.45v-4c0-1.8-.06-2.82-.28-3.38-.17-.51-.53-.65-1.13-.65h-.42l.51-1.35h1.41c0-1.32,0-1.83-.06-2.73.82-.28,2.22-.93,2.96-1.41Z" style="fill:#fff;"/><path d="M120.54,35.56c-.31.73-.56,1.44-.76,2.17-1.24.45-2.62.7-4.08.7-4.17,0-6.76-2.96-6.76-7.15s2.76-7.38,6.62-7.38c3.27,0,5.26,2,5.26,5.18,0,.25,0,.53-.03,1.01l-.28.31h-3.52c-1.69,0-3.91.06-5.01.14.03,3.69,1.91,5.8,5.12,5.8,1.18,0,2.08-.28,3.13-.99l.31.2ZM115.98,28.88c1.32-.03,1.83-.39,1.83-1.21,0-1.32-1.13-2.34-2.53-2.34-1.94,0-2.98,1.32-3.27,3.63l3.97-.08Z" style="fill:#fff;"/><path d="M130.53,26.94c-.62-.93-1.55-1.44-2.7-1.44-1.3,0-2.11.7-2.11,1.8,0,2.76,6.19,2.03,6.19,6.33,0,3.01-2.51,4.76-5.66,4.76-1.15,0-2.25-.2-3.52-.65.25-.79.48-1.72.65-2.62l.34-.03c.7,1.21,1.58,1.72,2.87,1.72,1.46,0,2.56-.9,2.56-2.17,0-3.18-6.14-2-6.14-6.48,0-2.62,2.06-4.22,5.35-4.22,1.13,0,1.8.11,2.98.51-.17.73-.31,1.58-.48,2.42l-.34.06Z" style="fill:#fff;"/><path d="M158.83,34.83c-.31.82-.65,1.77-.9,2.73-1.75.56-3.66.82-5.8.82-5.88,0-10.11-4.11-10.11-10.22s4.81-10.3,11.68-10.3c1.8,0,3.77.34,5.43.96-.34,1.04-.65,2.22-.9,3.32l-.45.03c-1.27-1.6-2.79-2.48-5.04-2.48-4.25,0-6.87,3.07-6.87,8.02s2.98,8.56,7.46,8.56c1.75,0,3.49-.51,5.1-1.69l.39.25Z" style="fill:#fff;"/><path d="M172.28,37.92c-1.18,0-2.39.08-3.63.2l-.08-2.03-1.1.93c-1.15.99-2.14,1.38-3.35,1.38-2.17,0-3.6-1.52-3.6-3.8,0-3.27,3.07-4,6.02-4.36,1.46-.2,1.6-.28,1.6-1.21,0-1.86-.59-2.98-2.76-2.98-1.18,0-2.34.39-3.01,1.35l-.37-.11c.08-.73.14-1.52.2-2.31,1.27-.56,2.65-.9,4.19-.9,1.75,0,3.55.34,4.28,2.03.23.56.28,1.58.28,2.34v4.7c0,1.15.11,2.2.28,2.76.17.59.54.84,1.27.84h.31l-.53,1.18ZM168.17,31.45c-1.69.11-4.67.34-4.67,2.7,0,1.3.82,2.17,2,2.17.59,0,1.18-.23,1.75-.7.73-.62.93-1.24.93-2.59v-1.58Z" style="fill:#fff;"/><path d="M182.14,26.94c-.62-.93-1.55-1.44-2.7-1.44-1.3,0-2.11.7-2.11,1.8,0,2.76,6.19,2.03,6.19,6.33,0,3.01-2.51,4.76-5.66,4.76-1.15,0-2.25-.2-3.52-.65.25-.79.48-1.72.65-2.62l.34-.03c.7,1.21,1.58,1.72,2.87,1.72,1.46,0,2.56-.9,2.56-2.17,0-3.18-6.14-2-6.14-6.48,0-2.62,2.06-4.22,5.35-4.22,1.13,0,1.8.11,2.98.51-.17.73-.31,1.58-.48,2.42l-.34.06Z" style="fill:#fff;"/><path d="M186.72,37.95c.31-1.66.37-3.38.37-5.35v-3.13c0-1.38-.06-2.36-.2-2.93-.14-.59-.53-.87-1.21-.87h-.23l.53-1.15,4.19-.2c-.17,2.45-.25,3.46-.25,4.7v3.97c0,2.34.2,3.8.56,4.95-.51-.03-1.18-.06-1.89-.06s-1.35.03-1.89.06ZM188.22,21.48c-.53,0-.84-.03-1.07-.23s-.31-.54-.31-1.18c0-.84.08-1.35.39-1.63.34-.28.82-.37,1.69-.37.62,0,.96.08,1.15.37.14.22.2.59.2,1.13,0,.84-.08,1.3-.31,1.55-.25.31-.79.37-1.75.37Z" style="fill:#fff;"/><path d="M203.59,37.95c.28-1.46.37-3.32.37-5.35v-2.22c0-1.86-.14-4-2.79-4-.9,0-1.83.34-2.51,1.01-.84.79-1.1,1.46-1.1,3.35v1.89c0,2.56.17,4.11.56,5.32-.45-.06-1.21-.06-1.86-.06-.76,0-1.46.03-1.91.06.25-1.46.34-3.32.34-5.35v-3.13c0-1.38-.06-2.36-.17-2.93-.14-.59-.56-.87-1.24-.87h-.23l.56-1.15c1.21,0,2.65-.11,3.89-.2l-.08,2.42,1.13-.96c1.38-1.18,2.53-1.69,3.91-1.69,3.29,0,4.34,1.86,4.34,5.15v3.38c0,2.56.17,4.11.56,5.32-.42-.06-1.21-.06-1.86-.06-.76,0-1.44.03-1.91.06Z" style="fill:#fff;"/><path d="M210.01,31.39c0-4.08,2.51-7.57,7.46-7.57,4.22,0,6.73,2.65,6.73,6.98,0,4.56-2.98,7.63-7.4,7.63s-6.78-2.67-6.78-7.04ZM220.9,31.45c0-3.83-1.49-6.19-3.86-6.19-2.7,0-3.74,2.53-3.74,5.57,0,3.86,1.49,6.19,3.86,6.19s3.74-2.08,3.74-5.57Z" style="fill:#fff;"/></svg>